<?xml version="1.0" standalone="no"?>
<!DOCTYPE svg PUBLIC "-//W3C//DTD SVG 20010904//EN"
 "http://www.w3.org/TR/2001/REC-SVG-20010904/DTD/svg10.dtd">
<svg version="1.0" xmlns="http://www.w3.org/2000/svg"
 width="700.000000pt" height="700.000000pt" viewBox="0 0 700.000000 700.000000"
 preserveAspectRatio="xMidYMid meet">
<metadata>
Created by potrace 1.14, written by Peter Selinger 2001-2017
</metadata>
<g transform="translate(0.000000,700.000000) scale(0.100000,-0.100000)"
fill="#000000" stroke="none">
<path d="M1423 6631 c-98 -34 -155 -85 -204 -186 l-24 -50 -3 -2604 -2 -2603
35 31 c63 55 164 94 271 105 21 3 1017 5 2212 5 l2172 1 0 2660 0 2660 -2202
-1 c-2087 0 -2206 -1 -2255 -18z m2038 -971 c60 -11 169 -44 204 -62 11 -6 44
-26 72 -45 l53 -35 56 27 c136 64 282 94 469 96 392 3 715 -222 823 -573 99
-320 44 -607 -167 -869 -158 -196 -412 -338 -623 -349 -5 0 -8 -131 -8 -290
l0 -291 -25 -24 -24 -25 -826 0 -826 0 -24 25 -25 24 0 289 0 289 -42 12 c-61
19 -206 89 -253 123 -126 92 -168 131 -230 213 -92 120 -129 227 -129 370 0
119 9 172 45 266 52 134 146 240 284 319 89 51 248 100 338 104 9 0 17 3 17 7
0 3 21 37 46 75 77 117 180 211 289 267 57 28 173 64 225 69 58 6 219 -1 281
-12z m-915 -2960 c48 -24 62 -56 43 -102 -14 -33 -50 -46 -85 -29 -38 17 -60
13 -78 -14 -35 -53 -13 -131 46 -161 29 -15 105 -16 114 -2 3 4 12 8 19 8 25
0 82 53 191 176 105 119 219 158 386 130 88 -14 213 -79 297 -154 l35 -30 50
43 c186 157 409 192 572 89 57 -36 82 -59 166 -156 92 -105 194 -144 262 -99
56 37 71 97 39 153 -15 24 -23 28 -45 24 -16 -3 -40 -9 -55 -12 -34 -7 -73 25
-73 59 0 50 63 97 130 97 75 0 161 -70 184 -149 63 -214 -172 -420 -494 -434
-110 -5 -261 21 -409 69 -63 21 -229 92 -280 121 l-43 24 -112 -54 c-372 -182
-688 -210 -929 -84 -192 100 -259 323 -135 447 61 62 130 75 204 40z"/>
<path d="M1503 1175 c-73 -20 -127 -49 -180 -98 -36 -33 -95 -115 -99 -137 0
-3 -7 -18 -14 -35 -8 -19 -13 -70 -14 -135 0 -91 3 -113 26 -167 49 -116 137
-196 257 -234 61 -19 111 -19 2196 -19 l2133 0 -19 62 c-11 34 -22 78 -25 98
-3 19 -7 37 -9 40 -9 14 -18 146 -18 245 1 127 16 231 48 328 l23 67 -2126 -1
c-1800 0 -2135 -2 -2179 -14z"/>
</g>
</svg>
